HIERARCHY
ROOT hip
{
	OFFSET 0.000000 0.000000 0.000000
	CHANNELS 6 Xposition Yposition Zposition Xrotation Zrotation Yrotation 
	JOINT abdomen
	{
		OFFSET 0.000000 3.422050 0.000000
		CHANNELS 3 Xrotation Zrotation Yrotation 
		JOINT chest
		{
			OFFSET 0.000000 8.486693 -0.6844110
			CHANNELS 3 Xrotation Zrotation Yrotation 
			JOINT neck
			{
				OFFSET 0.000000 10.26616 -0.2737640
				CHANNELS 3 Xrotation Zrotation Yrotation 
				JOINT head
				{
					OFFSET 0.000000 3.148285 0.000000
					CHANNELS 3 Xrotation Zrotation Yrotation 
					End Site
					{
						OFFSET 0.000000 3.148289 0.000000
					}
				}
			}
			JOINT lCollar
			{
				OFFSET 3.422053 6.707223 -0.8212930
				CHANNELS 3 Yrotation Zrotation Xrotation 
				JOINT lShldr
				{
					OFFSET 3.285171 0.000000 0.000000
					CHANNELS 3 Zrotation Yrotation Xrotation 
					JOINT lForeArm
					{
						OFFSET 10.12928 0.000000 0.000000
						CHANNELS 3 Yrotation Zrotation Xrotation 
						JOINT lHand
						{
							OFFSET 8.486692 0.000000 0.000000
							CHANNELS 3 Zrotation Yrotation Xrotation 
							End Site
							{
								OFFSET 4.106464 0.000000 0.000000
							}
						}
					}
				}
			}
			JOINT rCollar
			{
				OFFSET -3.558935 6.707223 -0.8212930
				CHANNELS 3 Yrotation Zrotation Xrotation 
				JOINT rShldr
				{
					OFFSET -3.148289 0.000000 0.000000
					CHANNELS 3 Zrotation Yrotation Xrotation 
					JOINT rForeArm
					{
						OFFSET -10.26616 0.000000 0.000000
						CHANNELS 3 Yrotation Zrotation Xrotation 
						JOINT rHand
						{
							OFFSET -8.349810 0.000000 0.000000
							CHANNELS 3 Zrotation Yrotation Xrotation 
							End Site
							{
								OFFSET -4.106464 0.000000 0.000000
							}
						}
					}
				}
			}
		}
	}
	JOINT lThigh
	{
		OFFSET 5.338403 -1.642589 1.368821
		CHANNELS 3 Xrotation Zrotation Yrotation 
		JOINT lShin
		{
			OFFSET -2.053232 -20.12167 0.000000
			CHANNELS 3 Xrotation Zrotation Yrotation 
			JOINT lFoot
			{
				OFFSET 0.000000 -19.30038 -1.231939
				CHANNELS 3 Xrotation Yrotation Zrotation 
				End Site
				{
					OFFSET 0.000000 -2.463878 4.653993
				}
			}
		}
	}
	JOINT rThigh
	{
		OFFSET -5.338403 -1.642589 1.368821
		CHANNELS 3 Xrotation Zrotation Yrotation 
		JOINT rShin
		{
			OFFSET 2.053232 -20.12167 0.000000
			CHANNELS 3 Xrotation Zrotation Yrotation 
			JOINT rFoot
			{
				OFFSET 0.000000 -19.30038 -1.231939
				CHANNELS 3 Xrotation Yrotation Zrotation 
				End Site
				{
					OFFSET 0.000000 -2.463878 4.653993
				}
			}
		}
	}
}
MOTION
Frames:	19
Frame Time:	0.03333333
0.000000 39.00000 0.000000 1.000000 0.000000 0.000000 1.000000 0.000000 0.000000 1.000000 0.000000 0.000000 1.000000 0.000000 0.000000 1.000000 0.000000 0.000000 0.000000 0.000000 1.000000 -72.55769 36.19231 0.000000 -122.6538 0.000000 0.000000 2.596154 -49.00000 -84.80769 0.000000 0.000000 1.000000 72.55769 -36.19231 0.000000 122.6538 0.000000 0.000000 -2.596154 49.00000 -84.80769 -19.25000 0.000000 0.000000 37.50000 0.000000 0.000000 -14.32692 0.000000 0.000000 -15.00000 0.000000 0.000000 30.00000 0.000000 0.000000 -16.00000 0.000000 0.000000 
0.000000 39.00000 0.000000 1.000000 0.000000 0.000000 1.000000 0.000000 0.000000 1.000000 0.000000 0.000000 1.000000 0.000000 0.000000 1.000000 0.000000 0.000000 0.000000 0.000000 1.000000 -68.11539 29.38461 0.000000 -116.3077 0.000000 0.000000 5.192307 -46.00000 -79.61539 0.000000 0.000000 1.000000 68.11539 -29.38461 0.000000 116.3077 0.000000 0.000000 -5.192307 46.00000 -79.61539 -23.50000 0.000000 0.000000 45.00000 0.000000 0.000000 -12.65385 0.000000 0.000000 -15.00000 0.000000 0.000000 30.00000 0.000000 0.000000 -16.00000 0.000000 0.000000 
0.000000 39.00000 0.000000 1.000000 0.000000 0.000000 1.000000 0.000000 0.000000 1.000000 0.000000 0.000000 1.000000 0.000000 0.000000 1.000000 0.000000 0.000000 0.000000 0.000000 1.000000 -63.67308 22.57692 0.000000 -109.9615 0.000000 0.000000 7.788461 -43.00000 -74.42308 0.000000 0.000000 1.000000 63.67308 -22.57692 0.000000 109.9615 0.000000 0.000000 -7.788461 43.00000 -74.42308 -27.75000 0.000000 0.000000 52.50000 0.000000 0.000000 -10.98077 0.000000 0.000000 -15.00000 0.000000 0.000000 30.00000 0.000000 0.000000 -16.00000 0.000000 0.000000 
0.000000 39.00000 0.000000 1.000000 0.000000 0.000000 1.000000 0.000000 0.000000 1.000000 0.000000 0.000000 1.000000 0.000000 0.000000 1.000000 0.000000 0.000000 0.000000 0.000000 1.000000 -59.23077 15.76923 0.000000 -103.6154 0.000000 0.000000 10.38461 -40.00000 -69.23077 0.000000 0.000000 1.000000 59.23077 -15.76923 0.000000 103.6154 0.000000 0.000000 -10.38461 40.00000 -69.23077 -32.00000 0.000000 0.000000 60.00000 0.000000 0.000000 -9.307693 0.000000 0.000000 -15.00000 0.000000 0.000000 30.00000 0.000000 0.000000 -16.00000 0.000000 0.000000 
0.000000 39.00000 0.000000 1.000000 0.000000 0.000000 1.000000 0.000000 0.000000 1.000000 0.000000 0.000000 1.000000 0.000000 0.000000 1.000000 0.000000 0.000000 0.000000 0.000000 1.000000 -54.78846 8.961538 0.000000 -97.26923 0.000000 0.000000 12.98077 -37.00000 -64.03846 0.000000 0.000000 1.000000 54.78846 -8.961538 0.000000 97.26923 0.000000 0.000000 -12.98077 37.00000 -64.03846 -36.25000 0.000000 0.000000 67.50000 0.000000 0.000000 -7.634615 0.000000 0.000000 -15.00000 0.000000 0.000000 30.00000 0.000000 0.000000 -16.00000 0.000000 0.000000 
0.000000 39.00000 0.000000 1.000000 0.000000 0.000000 1.000000 0.000000 0.000000 1.000000 0.000000 0.000000 1.000000 0.000000 0.000000 1.000000 0.000000 0.000000 0.000000 0.000000 1.000000 -50.34615 2.153846 0.000000 -90.92307 0.000000 0.000000 15.57692 -34.00000 -58.84615 0.000000 0.000000 1.000000 50.34615 -2.153846 0.000000 90.92307 0.000000 0.000000 -15.57692 34.00000 -58.84615 -40.50000 0.000000 0.000000 75.00000 0.000000 0.000000 -5.961538 0.000000 0.000000 -15.00000 0.000000 0.000000 30.00000 0.000000 0.000000 -16.00000 0.000000 0.000000 
0.000000 39.00000 0.000000 1.000000 0.000000 0.000000 1.000000 0.000000 0.000000 1.000000 0.000000 0.000000 1.000000 0.000000 0.000000 1.000000 0.000000 0.000000 0.000000 0.000000 1.000000 -45.90385 -4.653846 0.000000 -84.57692 0.000000 0.000000 18.17308 -31.00000 -53.65385 0.000000 0.000000 1.000000 45.90385 4.653846 0.000000 84.57692 0.000000 0.000000 -18.17308 31.00000 -53.65385 -44.75000 0.000000 0.000000 82.50000 0.000000 0.000000 -4.288462 0.000000 0.000000 -15.00000 0.000000 0.000000 30.00000 0.000000 0.000000 -16.00000 0.000000 0.000000 
0.000000 39.00000 0.000000 1.000000 0.000000 0.000000 1.000000 0.000000 0.000000 1.000000 0.000000 0.000000 1.000000 0.000000 0.000000 1.000000 0.000000 0.000000 0.000000 0.000000 1.000000 -41.46154 -11.46154 0.000000 -78.23077 0.000000 0.000000 20.76923 -28.00000 -48.46154 0.000000 0.000000 1.000000 41.46154 11.46154 0.000000 78.23077 0.000000 0.000000 -20.76923 28.00000 -48.46154 -49.00000 0.000000 0.000000 90.00000 0.000000 0.000000 -2.615385 0.000000 0.000000 -15.00000 0.000000 0.000000 30.00000 0.000000 0.000000 -16.00000 0.000000 0.000000 
0.000000 39.00000 0.000000 1.000000 0.000000 0.000000 1.000000 0.000000 0.000000 1.000000 0.000000 0.000000 1.000000 0.000000 0.000000 1.000000 0.000000 0.000000 0.000000 0.000000 1.000000 -35.53846 -20.53846 0.000000 -69.76923 0.000000 0.000000 24.23077 -24.00000 -41.53846 0.000000 0.000000 1.000000 35.53846 20.53846 0.000000 69.76923 0.000000 0.000000 -24.23077 24.00000 -41.53846 -49.00000 0.000000 0.000000 77.28571 0.000000 0.000000 -0.3846154 0.000000 0.000000 -15.00000 0.000000 0.000000 30.00000 0.000000 0.000000 -16.00000 0.000000 0.000000 
0.000000 39.00000 0.000000 1.000000 0.000000 0.000000 1.000000 0.000000 0.000000 1.000000 0.000000 0.000000 1.000000 0.000000 0.000000 1.000000 0.000000 0.000000 0.000000 0.000000 1.000000 -29.61539 -29.61539 0.000000 -61.30769 0.000000 0.000000 27.69231 -20.00000 -34.61539 0.000000 0.000000 1.000000 29.61539 29.61539 0.000000 61.30769 0.000000 0.000000 -27.69231 20.00000 -34.61539 -49.00000 0.000000 0.000000 64.57143 0.000000 0.000000 1.846154 0.000000 0.000000 -15.00000 0.000000 0.000000 30.00000 0.000000 0.000000 -16.00000 0.000000 0.000000 
0.000000 39.00000 0.000000 1.000000 0.000000 0.000000 1.000000 0.000000 0.000000 1.000000 0.000000 0.000000 1.000000 0.000000 0.000000 1.000000 0.000000 0.000000 0.000000 0.000000 1.000000 -23.69231 -38.69231 0.000000 -52.84615 0.000000 0.000000 31.15384 -16.00000 -27.69231 0.000000 0.000000 1.000000 23.69231 38.69231 0.000000 52.84615 0.000000 0.000000 -31.15384 16.00000 -27.69231 -49.00000 0.000000 0.000000 51.85714 0.000000 0.000000 4.076923 0.000000 0.000000 -15.00000 0.000000 0.000000 30.00000 0.000000 0.000000 -16.00000 0.000000 0.000000 
0.000000 39.00000 0.000000 1.000000 0.000000 0.000000 1.000000 0.000000 0.000000 1.000000 0.000000 0.000000 1.000000 0.000000 0.000000 1.000000 0.000000 0.000000 0.000000 0.000000 1.000000 -17.76923 -47.76923 0.000000 -44.38461 0.000000 0.000000 34.61538 -12.00000 -20.76923 0.000000 0.000000 1.000000 17.76923 47.76923 0.000000 44.38461 0.000000 0.000000 -34.61538 12.00000 -20.76923 -49.00000 0.000000 0.000000 39.14286 0.000000 0.000000 6.307693 0.000000 0.000000 -15.00000 0.000000 0.000000 30.00000 0.000000 0.000000 -16.00000 0.000000 0.000000 
0.000000 39.00000 0.000000 1.000000 0.000000 0.000000 1.000000 0.000000 0.000000 1.000000 0.000000 0.000000 1.000000 0.000000 0.000000 1.000000 0.000000 0.000000 0.000000 0.000000 1.000000 -11.84615 -56.84615 0.000000 -35.92308 0.000000 0.000000 38.07692 -8.000000 -13.84615 0.000000 0.000000 1.000000 11.84615 56.84615 0.000000 35.92308 0.000000 0.000000 -38.07692 8.000000 -13.84615 -49.00000 0.000000 0.000000 26.42857 0.000000 0.000000 8.538462 0.000000 0.000000 -15.00000 0.000000 0.000000 30.00000 0.000000 0.000000 -16.00000 0.000000 0.000000 
0.000000 39.00000 0.000000 1.000000 0.000000 0.000000 1.000000 0.000000 0.000000 1.000000 0.000000 0.000000 1.000000 0.000000 0.000000 1.000000 0.000000 0.000000 0.000000 0.000000 1.000000 -5.923077 -65.92308 0.000000 -27.46154 0.000000 0.000000 41.53846 -4.000000 -6.923077 0.000000 0.000000 1.000000 5.923077 65.92308 0.000000 27.46154 0.000000 0.000000 -41.53846 4.000000 -6.923077 -49.00000 0.000000 0.000000 13.71429 0.000000 0.000000 10.76923 0.000000 0.000000 -15.00000 0.000000 0.000000 30.00000 0.000000 0.000000 -16.00000 0.000000 0.000000 
0.000000 39.00000 0.000000 1.000000 0.000000 0.000000 1.000000 0.000000 0.000000 1.000000 0.000000 0.000000 1.000000 0.000000 0.000000 1.000000 0.000000 0.000000 0.000000 0.000000 1.000000 0.000000 -75.00000 0.000000 -19.00000 0.000000 0.000000 45.00000 0.000000 0.000000 0.000000 0.000000 1.000000 0.000000 75.00000 0.000000 19.00000 0.000000 0.000000 -45.00000 0.000000 0.000000 -49.00000 0.000000 0.000000 1.000000 0.000000 0.000000 13.00000 0.000000 0.000000 -15.00000 0.000000 0.000000 30.00000 0.000000 0.000000 -16.00000 0.000000 0.000000 
0.000000 39.00000 0.000000 1.000000 0.000000 0.000000 1.000000 0.000000 0.000000 1.000000 0.000000 0.000000 1.000000 0.000000 0.000000 1.000000 0.000000 0.000000 0.000000 0.000000 1.000000 -5.182693 -67.05769 0.000000 -26.40385 0.000000 0.000000 41.97115 -3.500000 -6.057693 0.000000 0.000000 1.000000 5.182693 67.05769 0.000000 26.40385 0.000000 0.000000 -41.97115 3.500000 -6.057693 -49.00000 0.000000 0.000000 12.12500 0.000000 0.000000 11.04808 0.000000 0.000000 -15.00000 0.000000 0.000000 30.00000 0.000000 0.000000 -16.00000 0.000000 0.000000 
0.000000 39.00000 0.000000 1.000000 0.000000 0.000000 1.000000 0.000000 0.000000 1.000000 0.000000 0.000000 1.000000 0.000000 0.000000 1.000000 0.000000 0.000000 0.000000 0.000000 1.000000 -10.36539 -59.11538 0.000000 -33.80769 0.000000 0.000000 38.94231 -7.000000 -12.11539 0.000000 0.000000 1.000000 10.36539 59.11538 0.000000 33.80769 0.000000 0.000000 -38.94231 7.000000 -12.11539 -49.00000 0.000000 0.000000 23.25000 0.000000 0.000000 9.096154 0.000000 0.000000 -15.00000 0.000000 0.000000 30.00000 0.000000 0.000000 -16.00000 0.000000 0.000000 
0.000000 39.00000 0.000000 1.000000 0.000000 0.000000 1.000000 0.000000 0.000000 1.000000 0.000000 0.000000 1.000000 0.000000 0.000000 1.000000 0.000000 0.000000 0.000000 0.000000 1.000000 -15.54808 -51.17308 0.000000 -41.21154 0.000000 0.000000 35.91346 -10.50000 -18.17308 0.000000 0.000000 1.000000 15.54808 51.17308 0.000000 41.21154 0.000000 0.000000 -35.91346 10.50000 -18.17308 -49.00000 0.000000 0.000000 34.37500 0.000000 0.000000 7.144231 0.000000 0.000000 -15.00000 0.000000 0.000000 30.00000 0.000000 0.000000 -16.00000 0.000000 0.000000 
0.000000 39.00000 0.000000 1.000000 0.000000 0.000000 1.000000 0.000000 0.000000 1.000000 0.000000 0.000000 1.000000 0.000000 0.000000 1.000000 0.000000 0.000000 0.000000 0.000000 1.000000 -20.73077 -43.23077 0.000000 -48.61538 0.000000 0.000000 32.88461 -14.00000 -24.23077 0.000000 0.000000 1.000000 20.73077 43.23077 0.000000 48.61538 0.000000 0.000000 -32.88461 14.00000 -24.23077 -49.00000 0.000000 0.000000 45.50000 0.000000 0.000000 5.192307 0.000000 0.000000 -15.00000 0.000000 0.000000 30.00000 0.000000 0.000000 -16.00000 0.000000 0.000000 
